<svg width="21" height="21" viewBox="0 0 21 21" fill="none" xmlns="http://www.w3.org/2000/svg">
<path d="M19.9706 1.95343C20.0068 1.82513 20.0081 1.68952 19.9744 1.56055C19.9408 1.43159 19.8733 1.31392 19.7791 1.21967C19.6848 1.12542 19.5672 1.05799 19.4382 1.02432C19.3092 0.990652 19.1736 0.991962 19.0453 1.02812L1.04531 6.48624C0.898359 6.52771 0.767564 6.61306 0.670412 6.73086C0.57326 6.84866 0.514379 6.99331 0.501639 7.14547C0.488899 7.29763 0.522908 7.45006 0.599119 7.58238C0.675331 7.71469 0.790114 7.8206 0.928127 7.88593L9.12469 11.8741L13.1128 20.0697C13.1781 20.2077 13.284 20.3225 13.4164 20.3987C13.5487 20.4749 13.7011 20.5089 13.8533 20.4962C14.0054 20.4834 14.1501 20.4245 14.2679 20.3274C14.3857 20.2302 14.471 20.0994 14.5125 19.9525L19.9706 1.95343Z" stroke="white" stroke-linecap="round" stroke-linejoin="round"/>
</svg>
