<svg width="24" height="24" viewBox="0 0 24 24" fill="none" xmlns="http://www.w3.org/2000/svg">
<g clip-path="url(#clip0_76_814)">
<path opacity="0.2" d="M20.9706 3.9544C21.0068 3.82611 21.0081 3.6905 20.9744 3.56153C20.9408 3.43256 20.8733 3.3149 20.7791 3.22065C20.6848 3.1264 20.5672 3.05897 20.4382 3.0253C20.3092 2.99163 20.1736 2.99294 20.0453 3.02909L2.04531 8.48722C1.89836 8.52869 1.76756 8.61403 1.67041 8.73183C1.57326 8.84964 1.51438 8.99429 1.50164 9.14645C1.4889 9.29861 1.52291 9.45104 1.59912 9.58335C1.67533 9.71567 1.79011 9.82157 1.92813 9.8869L10.1247 13.875L14.1128 22.0707C14.1781 22.2087 14.284 22.3235 14.4164 22.3997C14.5487 22.4759 14.7011 22.5099 14.8533 22.4971C15.0054 22.4844 15.1501 22.4255 15.2679 22.3284C15.3857 22.2312 15.471 22.1004 15.5125 21.9535L20.9706 3.9544Z" fill="black"/>
<path d="M10.125 13.875L15 9" stroke="black" stroke-linecap="round" stroke-linejoin="round"/>
<path d="M20.9706 3.9544C21.0068 3.82611 21.0081 3.6905 20.9744 3.56153C20.9408 3.43256 20.8733 3.3149 20.7791 3.22065C20.6848 3.1264 20.5672 3.05897 20.4382 3.0253C20.3092 2.99163 20.1736 2.99294 20.0453 3.02909L2.04531 8.48722C1.89836 8.52869 1.76756 8.61403 1.67041 8.73183C1.57326 8.84964 1.51438 8.99429 1.50164 9.14645C1.4889 9.29861 1.52291 9.45104 1.59912 9.58335C1.67533 9.71567 1.79011 9.82157 1.92813 9.8869L10.1247 13.875L14.1128 22.0707C14.1781 22.2087 14.284 22.3235 14.4164 22.3997C14.5487 22.4759 14.7011 22.5099 14.8533 22.4971C15.0054 22.4844 15.1501 22.4255 15.2679 22.3284C15.3857 22.2312 15.471 22.1004 15.5125 21.9535L20.9706 3.9544Z" stroke="black" stroke-linecap="round" stroke-linejoin="round"/>
</g>
<defs>
<clipPath id="clip0_76_814">
<rect width="24" height="24" fill="white"/>
</clipPath>
</defs>
</svg>
