<svg width="28" height="28" viewBox="0 0 28 28" fill="none" xmlns="http://www.w3.org/2000/svg">
<g clip-path="url(#clip0_1145_476)">
<path opacity="0.2" d="M8.74135 23.0897C10.9469 24.3662 13.5415 24.797 16.0412 24.3018C18.541 23.8067 20.7754 22.4193 22.3278 20.3984C23.8802 18.3774 24.6446 15.8609 24.4786 13.318C24.3126 10.7751 23.2275 8.37929 21.4256 6.57734C19.6236 4.7754 17.2278 3.69026 14.6849 3.52427C12.142 3.35827 9.62547 4.12273 7.60455 5.67513C5.58364 7.22753 4.19626 9.4619 3.70108 11.9617C3.2059 14.4614 3.63672 17.056 4.91322 19.2616L3.54494 23.3467C3.49353 23.5009 3.48607 23.6663 3.52339 23.8245C3.56072 23.9827 3.64136 24.1273 3.75628 24.2423C3.8712 24.3572 4.01585 24.4378 4.17403 24.4751C4.3322 24.5125 4.49764 24.505 4.65182 24.4536L8.74135 23.0897Z" fill="black"/>
<path d="M8.75 15.75L12.25 12.25L15.75 15.75L19.25 12.25" stroke="black" stroke-width="2" stroke-linecap="round" stroke-linejoin="round"/>
<path d="M8.74135 23.0897C10.9469 24.3662 13.5415 24.797 16.0412 24.3018C18.541 23.8067 20.7754 22.4193 22.3278 20.3984C23.8802 18.3774 24.6446 15.8609 24.4786 13.318C24.3126 10.7751 23.2275 8.37929 21.4256 6.57734C19.6236 4.7754 17.2278 3.69026 14.6849 3.52427C12.142 3.35827 9.62547 4.12273 7.60455 5.67513C5.58364 7.22753 4.19626 9.4619 3.70108 11.9617C3.2059 14.4614 3.63672 17.056 4.91322 19.2616L3.54494 23.3467C3.49353 23.5009 3.48607 23.6663 3.52339 23.8245C3.56072 23.9827 3.64136 24.1273 3.75628 24.2423C3.8712 24.3572 4.01585 24.4378 4.17403 24.4751C4.3322 24.5125 4.49764 24.505 4.65182 24.4536L8.74135 23.0897Z" stroke="black" stroke-width="2" stroke-linecap="round" stroke-linejoin="round"/>
</g>
<defs>
<clipPath id="clip0_1145_476">
<rect width="28" height="28" fill="white"/>
</clipPath>
</defs>
</svg>
