<svg width="24" height="24" viewBox="0 0 24 24" fill="none" xmlns="http://www.w3.org/2000/svg">
<path d="M6.74135 21.0897C8.94693 22.3662 11.5415 22.797 14.0412 22.3018C16.541 21.8067 18.7754 20.4193 20.3278 18.3984C21.8802 16.3774 22.6446 13.8609 22.4786 11.318C22.3126 8.77507 21.2275 6.37929 19.4256 4.57734C17.6236 2.7754 15.2278 1.69026 12.6849 1.52427C10.142 1.35827 7.62547 2.12273 5.60455 3.67513C3.58364 5.22753 2.19626 7.4619 1.70108 9.96167C1.2059 12.4614 1.63672 15.056 2.91322 17.2616L1.54494 21.3467C1.49353 21.5009 1.48607 21.6663 1.52339 21.8245C1.56072 21.9827 1.64136 22.1273 1.75628 22.2423C1.8712 22.3572 2.01585 22.4378 2.17403 22.4751C2.3322 22.5125 2.49764 22.505 2.65182 22.4536L6.74135 21.0897Z" stroke="black" stroke-width="2" stroke-linecap="round" stroke-linejoin="round"/>
</svg>
