<svg width="24" height="24" viewBox="0 0 24 24" fill="none" xmlns="http://www.w3.org/2000/svg">
<path opacity="0.2" d="M22.5 16.5L19.725 19.9688C19.6548 20.0565 19.5658 20.1273 19.4645 20.1759C19.3632 20.2246 19.2523 20.2499 19.14 20.25H4.86C4.74765 20.2499 4.63675 20.2246 4.5355 20.1759C4.43424 20.1273 4.34522 20.0565 4.275 19.9688L1.5 16.5H22.5ZM12.75 0.75L3 12.75H12.75V0.75Z" fill="black"/>
<path d="M23.1764 16.1745C23.1152 16.0473 23.0192 15.9399 22.8996 15.8648C22.7801 15.7897 22.6417 15.7498 22.5005 15.7499H13.5005V13.4999H20.2505C20.3957 13.4998 20.5379 13.4576 20.6596 13.3784C20.7814 13.2991 20.8775 13.1862 20.9363 13.0533C20.995 12.9205 21.014 12.7734 20.9908 12.63C20.9675 12.4866 20.9032 12.353 20.8055 12.2455L13.5005 4.21016V0.749851C13.4996 0.595257 13.451 0.444699 13.3614 0.318781C13.2717 0.192863 13.1453 0.0977379 12.9994 0.0464249C12.8536 -0.00488816 12.6955 -0.00988213 12.5467 0.0321265C12.3979 0.0741351 12.2657 0.161094 12.1683 0.281101L2.41828 12.2811C2.33014 12.3912 2.27482 12.5239 2.25868 12.664C2.24253 12.8041 2.26621 12.9459 2.32699 13.0731C2.38778 13.2004 2.48321 13.3079 2.60233 13.3834C2.72146 13.4589 2.85945 13.4992 3.00047 13.4999H12.0005V15.7499H1.50047C1.35913 15.7498 1.22064 15.7896 1.10097 15.8648C0.981293 15.94 0.885303 16.0475 0.824061 16.1749C0.762819 16.3023 0.738819 16.4444 0.754826 16.5848C0.770832 16.7252 0.826195 16.8583 0.914532 16.9686L3.68953 20.4374C3.82975 20.6132 4.00788 20.7552 4.21064 20.8526C4.41339 20.95 4.63553 21.0003 4.86047 20.9999H19.1405C19.3654 21.0003 19.5875 20.95 19.7903 20.8526C19.9931 20.7552 20.1712 20.6132 20.3114 20.4374L23.0864 16.9686C23.1747 16.8582 23.2301 16.7251 23.246 16.5846C23.2619 16.4441 23.2378 16.3019 23.1764 16.1745ZM18.5555 11.9999H13.5005V6.43954L18.5555 11.9999ZM4.57641 11.9999L12.0005 2.86204V11.9999H4.57641ZM19.1405 19.4999H4.86047L3.06047 17.2499H20.9405L19.1405 19.4999Z" fill="black"/>
</svg>
