<svg width="32" height="32" viewBox="0 0 32 32" fill="none" xmlns="http://www.w3.org/2000/svg">
<g clip-path="url(#clip0_1093_3762)">
<path opacity="0.2" d="M16.0007 4C13.5731 3.99985 11.2026 4.73598 9.20211 6.11119C7.20162 7.48639 5.66526 9.43599 4.79589 11.7026C3.92653 13.9691 3.76505 16.4461 4.33277 18.8064C4.90049 21.1666 6.17072 23.2992 7.97573 24.9225C8.72856 23.4411 9.87682 22.1971 11.2933 21.3283C12.7097 20.4594 14.339 19.9997 16.0007 20C15.0118 20 14.0451 19.7068 13.2229 19.1573C12.4006 18.6079 11.7598 17.827 11.3813 16.9134C11.0029 15.9998 10.9039 14.9945 11.0968 14.0245C11.2897 13.0546 11.7659 12.1637 12.4652 11.4645C13.1645 10.7652 14.0554 10.289 15.0253 10.0961C15.9952 9.90315 17.0005 10.0022 17.9141 10.3806C18.8278 10.759 19.6087 11.3999 20.1581 12.2221C20.7075 13.0444 21.0007 14.0111 21.0007 15C21.0007 16.3261 20.4739 17.5979 19.5363 18.5355C18.5986 19.4732 17.3268 20 16.0007 20C17.6623 19.9996 19.2915 20.4591 20.708 21.3277C22.1244 22.1964 23.2727 23.4401 24.0257 24.9212C25.8303 23.2979 27.1001 21.1654 27.6675 18.8053C28.235 16.4453 28.0734 13.9686 27.2041 11.7023C26.3348 9.43605 24.7986 7.48665 22.7984 6.11151C20.7982 4.73637 18.428 4.00013 16.0007 4Z" fill="#333333"/>
<path d="M7.97461 24.9219C8.727 23.4399 9.87506 22.1952 11.2915 21.3258C12.708 20.4563 14.3376 19.9961 15.9996 19.9961C17.6616 19.9961 19.2912 20.4563 20.7077 21.3258C22.1242 22.1952 23.2722 23.4399 24.0246 24.9219" stroke="#333333" stroke-width="2" stroke-linecap="round" stroke-linejoin="round"/>
<path d="M16 28C22.6274 28 28 22.6274 28 16C28 9.37258 22.6274 4 16 4C9.37258 4 4 9.37258 4 16C4 22.6274 9.37258 28 16 28Z" stroke="#333333" stroke-width="2" stroke-linecap="round" stroke-linejoin="round"/>
<path d="M16 20C18.7614 20 21 17.7614 21 15C21 12.2386 18.7614 10 16 10C13.2386 10 11 12.2386 11 15C11 17.7614 13.2386 20 16 20Z" stroke="#333333" stroke-width="2" stroke-linecap="round" stroke-linejoin="round"/>
</g>
<defs>
<clipPath id="clip0_1093_3762">
<rect width="32" height="32" fill="white"/>
</clipPath>
</defs>
</svg>
