<svg width="25" height="25" viewBox="0 0 25 25" fill="none" xmlns="http://www.w3.org/2000/svg">
<path fill-rule="evenodd" clip-rule="evenodd" d="M20.66 12.6927C20.66 12.09 20.6059 11.5105 20.5055 10.9541H12.5V14.2421H17.0746C16.8775 15.3046 16.2786 16.2048 15.3784 16.8075V18.9403H18.1255C19.7327 17.4605 20.66 15.2814 20.66 12.6927Z" fill="#4285F4"/>
<path fill-rule="evenodd" clip-rule="evenodd" d="M12.5002 21.0002C14.7952 21.0002 16.7193 20.2391 18.1257 18.9409L15.3786 16.8082C14.6175 17.3182 13.6439 17.6196 12.5002 17.6196C10.2864 17.6196 8.41248 16.1243 7.74407 14.1152H4.9043V16.3175C6.30294 19.0955 9.17749 21.0002 12.5002 21.0002Z" fill="#34A853"/>
<path fill-rule="evenodd" clip-rule="evenodd" d="M7.74387 14.1149C7.57387 13.6049 7.47728 13.0601 7.47728 12.4999C7.47728 11.9397 7.57387 11.3949 7.74387 10.8849V8.68262H4.90409C4.32841 9.83012 4 11.1283 4 12.4999C4 13.8715 4.32841 15.1697 4.90409 16.3172L7.74387 14.1149Z" fill="#FBBC05"/>
<path fill-rule="evenodd" clip-rule="evenodd" d="M12.5002 7.38069C13.7482 7.38069 14.8686 7.80955 15.7495 8.65183L18.1875 6.21387C16.7155 4.84227 14.7914 4 12.5002 4C9.17748 4 6.30294 5.90478 4.9043 8.68273L7.74407 10.885C8.41248 8.87592 10.2864 7.38069 12.5002 7.38069Z" fill="#EA4335"/>
</svg>
