<svg width="20" height="20" viewBox="0 0 20 20" fill="none" xmlns="http://www.w3.org/2000/svg">
<rect x="0.5" y="0.5" width="19" height="19" rx="5.5" fill="white" fill-opacity="0.1"/>
<rect x="0.5" y="0.5" width="19" height="19" rx="5.5" stroke="white"/>
<g clip-path="url(#clip0_1140_874)">
<path opacity="0.2" d="M14.5 6.625L10 10.75L5.5 6.625H14.5Z" fill="white"/>
<path d="M14.5 6.625L10 10.75L5.5 6.625" stroke="white" stroke-linecap="round" stroke-linejoin="round"/>
<path d="M5.5 6.625H14.5V13C14.5 13.0995 14.4605 13.1948 14.3902 13.2652C14.3198 13.3355 14.2245 13.375 14.125 13.375H5.875C5.77554 13.375 5.68016 13.3355 5.60984 13.2652C5.53951 13.1948 5.5 13.0995 5.5 13V6.625Z" stroke="white" stroke-linecap="round" stroke-linejoin="round"/>
<path d="M9.18148 10L5.61523 13.2691" stroke="white" stroke-linecap="round" stroke-linejoin="round"/>
<path d="M14.3846 13.2691L10.8184 10" stroke="white" stroke-linecap="round" stroke-linejoin="round"/>
</g>
<defs>
<clipPath id="clip0_1140_874">
<rect width="12" height="12" fill="white" transform="translate(4 4)"/>
</clipPath>
</defs>
</svg>
