<svg width="20" height="20" viewBox="0 0 20 20" fill="none" xmlns="http://www.w3.org/2000/svg">
<rect x="0.5" y="0.5" width="19" height="19" rx="5.5" fill="white" fill-opacity="0.1"/>
<rect x="0.5" y="0.5" width="19" height="19" rx="5.5" stroke="white"/>
<g clip-path="url(#clip0_1140_869)">
<path opacity="0.2" d="M11.7058 10.8126C11.7577 10.7781 11.8174 10.757 11.8796 10.7514C11.9417 10.7457 12.0042 10.7556 12.0616 10.7803L14.2722 11.7707C14.3467 11.8026 14.4089 11.8577 14.4494 11.9278C14.49 11.998 14.5067 12.0794 14.4972 12.1598C14.4244 12.704 14.1564 13.2033 13.743 13.5648C13.3296 13.9262 12.7991 14.1252 12.25 14.1248C10.5592 14.1248 8.93774 13.4532 7.7422 12.2576C6.54665 11.0621 5.875 9.44056 5.875 7.74981C5.87458 7.20071 6.0736 6.67016 6.43505 6.25681C6.79649 5.84345 7.29576 5.57544 7.84 5.50262C7.92045 5.49306 8.00184 5.50982 8.07197 5.55038C8.14211 5.59094 8.19722 5.65312 8.22906 5.72762L9.21953 7.94012C9.24387 7.99695 9.25378 8.05891 9.24838 8.12049C9.24298 8.18207 9.22244 8.24136 9.18859 8.29309L8.18688 9.48418C8.15134 9.5378 8.13033 9.59972 8.12589 9.66389C8.12146 9.72806 8.13375 9.79228 8.16156 9.85028C8.54922 10.6439 9.36953 11.4543 10.1655 11.8382C10.2238 11.8659 10.2883 11.878 10.3527 11.8731C10.417 11.8683 10.479 11.8467 10.5325 11.8106L11.7058 10.8126Z" fill="white"/>
<path d="M11.7058 10.8126C11.7577 10.7781 11.8174 10.757 11.8796 10.7514C11.9417 10.7457 12.0042 10.7556 12.0616 10.7803L14.2722 11.7707C14.3467 11.8026 14.4089 11.8577 14.4494 11.9278C14.49 11.998 14.5067 12.0794 14.4972 12.1598C14.4244 12.704 14.1564 13.2033 13.743 13.5648C13.3296 13.9262 12.7991 14.1252 12.25 14.1248C10.5592 14.1248 8.93774 13.4532 7.7422 12.2576C6.54665 11.0621 5.875 9.44056 5.875 7.74981C5.87458 7.20071 6.0736 6.67016 6.43505 6.25681C6.79649 5.84345 7.29576 5.57544 7.84 5.50262C7.92045 5.49306 8.00184 5.50982 8.07197 5.55038C8.14211 5.59094 8.19722 5.65312 8.22906 5.72762L9.21953 7.94012C9.24387 7.99695 9.25378 8.05891 9.24838 8.12049C9.24298 8.18207 9.22244 8.24136 9.18859 8.29309L8.18688 9.48418C8.15134 9.5378 8.13033 9.59972 8.12589 9.66389C8.12146 9.72806 8.13375 9.79228 8.16156 9.85028C8.54922 10.6439 9.36953 11.4543 10.1655 11.8382C10.2238 11.8659 10.2883 11.878 10.3527 11.8731C10.417 11.8683 10.479 11.8467 10.5325 11.8106L11.7058 10.8126Z" stroke="white" stroke-linecap="round" stroke-linejoin="round"/>
</g>
<defs>
<clipPath id="clip0_1140_869">
<rect width="12" height="12" fill="white" transform="translate(4 4)"/>
</clipPath>
</defs>
</svg>
